<?xml version="1.0" encoding="UTF-8" standalone="no"?>
<svg
   xmlns:osb="http://www.openswatchbook.org/uri/2009/osb"
   xmlns:dc="http://purl.org/dc/elements/1.1/"
   xmlns:cc="http://creativecommons.org/ns#"
   xmlns:rdf="http://www.w3.org/1999/02/22-rdf-syntax-ns#"
   xmlns:svg="http://www.w3.org/2000/svg"
   xmlns="http://www.w3.org/2000/svg"
   id="svg6093"
   version="1.1"
   viewBox="0 0 420 297"
   height="297mm"
   width="420mm">
  <defs
     id="defs6087">
    <linearGradient
       osb:paint="solid"
       id="linearGradient6719">
      <stop
         id="stop6717"
         offset="0"
         style="stop-color:#445896;stop-opacity:1;" />
    </linearGradient>
  </defs>
  <metadata
     id="metadata6090">
    <rdf:RDF>
      <cc:Work
         rdf:about="">
        <dc:format>image/svg+xml</dc:format>
        <dc:type
           rdf:resource="http://purl.org/dc/dcmitype/StillImage" />
        <dc:title></dc:title>
      </cc:Work>
    </rdf:RDF>
  </metadata>
  <g
     id="layer1">
    <path
       transform="matrix(-0.22608512,-0.73107063,1.2457726,0.24850204,14.922184,382.07062)"
       d="m 506.47576,208.37305 -17.8214,20.97997 -9.25848,-25.92376 z"
       id="path6723"
       style="opacity:1;fill:#192a60;fill-opacity:1;fill-rule:nonzero;stroke:#ffffff;stroke-width:4.16499996;stroke-linecap:round;stroke-linejoin:round;stroke-miterlimit:4;stroke-dasharray:none;stroke-dashoffset:0;stroke-opacity:0" />
    <path
       id="path6648"
       d="m 159.57018,165.67317 -19.27195,-8.54298 -0.10374,-75.631285 19.80648,-17.916702 z"
       style="opacity:1;fill:#445896;fill-opacity:1;fill-rule:nonzero;stroke:#ffffff;stroke-width:2.49764132;stroke-linecap:round;stroke-linejoin:round;stroke-miterlimit:4;stroke-dasharray:none;stroke-dashoffset:0;stroke-opacity:0" />
    <path
       transform="matrix(0.22608512,-0.73107063,-1.2457726,0.24850204,411.30471,382.10406)"
       d="m 506.47576,208.37305 -17.8214,20.97997 -9.25848,-25.92376 z"
       id="path6723-9"
       style="opacity:1;fill:#192a60;fill-opacity:1;fill-rule:nonzero;stroke:#ffffff;stroke-width:4.16499996;stroke-linecap:round;stroke-linejoin:round;stroke-miterlimit:4;stroke-dasharray:none;stroke-dashoffset:0;stroke-opacity:0" />
    <path
       id="path6648-1"
       d="m 266.6567,165.70659 19.27195,-8.54298 0.10374,-75.631276 -19.80649,-17.9167 z"
       style="opacity:1;fill:#445896;fill-opacity:1;fill-rule:nonzero;stroke:#ffffff;stroke-width:2.49764132;stroke-linecap:round;stroke-linejoin:round;stroke-miterlimit:4;stroke-dasharray:none;stroke-dashoffset:0;stroke-opacity:0" />
    <path
       id="path6648-2"
       d="m 223.81268,226.21705 -21.08055,0.0257 -30.80156,-103.06048 21.51707,6.01968 z"
       style="opacity:1;fill:#445896;fill-opacity:1;fill-rule:nonzero;stroke:#ffffff;stroke-width:3.05081201;stroke-linecap:round;stroke-linejoin:round;stroke-miterlimit:4;stroke-dasharray:none;stroke-dashoffset:0;stroke-opacity:0" />
    <path
       id="path6648-2-0"
       d="m 202.73213,226.19135 21.08055,0.0257 30.80156,-103.06047 -21.51707,6.01968 z"
       style="opacity:1;fill:#8c9bcb;fill-opacity:1;fill-rule:nonzero;stroke:#ffffff;stroke-width:3.05081201;stroke-linecap:round;stroke-linejoin:round;stroke-miterlimit:4;stroke-dasharray:none;stroke-dashoffset:0;stroke-opacity:0" />
    <path
       id="path6827"
       d="m 178.37588,144.52962 -18.76798,20.96351 0.10399,-28.20167 12.21867,-14.10918 z"
       style="opacity:1;fill:#192a60;fill-opacity:1;fill-rule:nonzero;stroke:#ffffff;stroke-width:6.35980463;stroke-linecap:round;stroke-linejoin:round;stroke-miterlimit:4;stroke-dasharray:none;stroke-dashoffset:0;stroke-opacity:0" />
    <path
       id="path6827-9"
       d="m 248.16893,144.50392 18.76797,20.96351 -0.10399,-28.20167 -12.21867,-14.10918 z"
       style="opacity:1;fill:#192a60;fill-opacity:1;fill-rule:nonzero;stroke:#ffffff;stroke-width:6.35980511;stroke-linecap:round;stroke-linejoin:round;stroke-miterlimit:4;stroke-dasharray:none;stroke-dashoffset:0;stroke-opacity:0" />
    <g
       id="flowRoot6975"
       style="font-style:normal;font-weight:normal;font-size:64px;line-height:1.25;font-family:sans-serif;letter-spacing:0px;word-spacing:0px;fill:#000000;fill-opacity:1;stroke:none"
       transform="matrix(0.26458333,0,0,0.26458333,14.967093,-10.751026)"
       aria-label="GNUastro">
      <path
         id="path6983"
         style="font-style:normal;font-variant:normal;font-weight:600;font-stretch:normal;font-family:'URW Gothic L';-inkscape-font-specification:'URW Gothic L Semi-Bold';fill:#192a60;fill-opacity:1"
         d="m 627.5318,963.95307 h 19.584 c -2.56,5.248 -7.68,8.32 -13.888,8.32 -9.28,0 -16.384,-6.976 -16.384,-16 0,-4.096 1.728,-8.576 4.416,-11.392 2.752,-3.008 6.912,-4.672 11.456,-4.672 5.504,0 10.048,2.176 12.992,6.272 h 10.304 c -3.072,-8.512 -12.8,-14.72 -23.104,-14.72 -13.824,0 -24.896,10.816 -24.896,24.384 0,13.824 11.2,24.576 25.728,24.576 7.104,0 13.248,-2.496 17.92,-7.296 4.352,-4.544 6.784,-10.432 6.784,-16.512 v -1.152 h -30.912 z" />
      <path
         id="path6985"
         style="font-style:normal;font-variant:normal;font-weight:600;font-stretch:normal;font-family:'URW Gothic L';-inkscape-font-specification:'URW Gothic L Semi-Bold';fill:#192a60;fill-opacity:1"
         d="m 664.1938,979.88907 h 8.768 v -34.368 l 19.776,34.368 h 9.792 v -47.296 h -8.768 v 34.432 l -19.584,-34.432 h -9.984 z" />
      <path
         id="path6987"
         style="font-style:normal;font-variant:normal;font-weight:600;font-stretch:normal;font-family:'URW Gothic L';-inkscape-font-specification:'URW Gothic L Semi-Bold';fill:#192a60;fill-opacity:1"
         d="m 711.5688,932.59307 v 29.952 c 0,5.056 0.768,8.256 2.56,11.136 2.752,4.352 7.872,7.04 13.376,7.04 5.12,0 9.984,-2.304 12.8,-6.08 2.304,-3.072 3.2,-6.592 3.2,-12.096 v -29.952 h -8.768 v 29.952 c 0,3.52 -0.256,4.992 -1.152,6.528 -1.216,1.984 -3.52,3.2 -6.016,3.2 -2.56,0 -4.864,-1.216 -6.08,-3.2 -0.896,-1.536 -1.152,-3.008 -1.152,-6.528 v -29.952 z" />
      <path
         id="path6989"
         style="font-style:normal;font-variant:normal;font-weight:600;font-stretch:normal;font-family:'URW Gothic L';-inkscape-font-specification:'URW Gothic L Semi-Bold';fill:#192a60;fill-opacity:1"
         d="m 787.5768,944.43307 h -7.808 v 4.736 c -2.944,-3.904 -6.464,-5.568 -11.584,-5.568 -10.496,0 -18.048,7.872 -18.048,18.688 0,10.688 7.488,18.432 17.856,18.432 4.992,0 8.384,-1.6 11.776,-5.44 v 4.608 h 7.808 z m -18.496,6.976 c 6.08,0 10.432,4.544 10.432,11.008 0,2.56 -1.024,5.504 -2.56,7.296 -1.728,2.048 -4.48,3.2 -7.744,3.2 -6.208,0 -10.496,-4.224 -10.496,-10.432 0,-6.464 4.288,-11.072 10.368,-11.072 z" />
      <path
         id="path6991"
         style="font-style:normal;font-variant:normal;font-weight:600;font-stretch:normal;font-family:'URW Gothic L';-inkscape-font-specification:'URW Gothic L Semi-Bold';fill:#192a60;fill-opacity:1"
         d="m 791.6828,968.62507 c 0.384,3.456 0.96,5.248 2.368,7.168 2.304,3.072 6.336,4.928 10.624,4.928 7.104,0 12.672,-5.312 12.672,-12.096 0,-3.072 -1.152,-5.632 -3.328,-7.36 -1.344,-1.152 -3.456,-2.048 -6.528,-3.008 -3.456,-1.088 -3.456,-1.088 -4.288,-1.472 -1.152,-0.512 -1.728,-1.344 -1.728,-2.368 0,-1.728 1.408,-3.008 3.264,-3.008 1.792,0 2.944,0.96 3.328,2.816 h 8.32 c -0.128,-3.008 -0.832,-4.8 -2.56,-6.72 -2.24,-2.496 -5.568,-3.904 -9.088,-3.904 -6.592,0 -11.776,4.736 -11.776,10.816 0,5.184 2.816,8.128 9.856,10.496 3.264,1.088 3.52,1.216 4.416,1.792 1.024,0.64 1.6,1.6 1.6,2.752 0,1.984 -1.664,3.456 -3.84,3.456 -2.496,0 -3.904,-1.28 -4.736,-4.288 z" />
      <path
         id="path6993"
         style="font-style:normal;font-variant:normal;font-weight:600;font-stretch:normal;font-family:'URW Gothic L';-inkscape-font-specification:'URW Gothic L Semi-Bold';fill:#192a60;fill-opacity:1"
         d="m 823.3278,979.88907 h 8.512 v -27.712 h 5.12 v -7.744 h -5.12 v -11.84 h -8.512 v 11.84 h -4.16 v 7.744 h 4.16 z" />
      <path
         id="path6995"
         style="font-style:normal;font-variant:normal;font-weight:600;font-stretch:normal;font-family:'URW Gothic L';-inkscape-font-specification:'URW Gothic L Semi-Bold';fill:#192a60;fill-opacity:1"
         d="m 841.2978,979.88907 h 8.512 v -19.712 c 0,-5.504 2.496,-8.256 7.616,-8.384 v -8.192 h -0.64 c -3.648,0 -5.44,1.024 -7.68,4.288 v -3.456 h -7.808 z" />
      <path
         id="path6997"
         style="font-style:normal;font-variant:normal;font-weight:600;font-stretch:normal;font-family:'URW Gothic L';-inkscape-font-specification:'URW Gothic L Semi-Bold';fill:#192a60;fill-opacity:1"
         d="m 879.0138,943.60107 c -10.304,0 -18.752,8.384 -18.752,18.56 0,10.24 8.448,18.56 18.816,18.56 10.304,0 18.88,-8.32 18.88,-18.304 0,-10.56 -8.256,-18.816 -18.944,-18.816 z m 0.064,7.808 c 5.696,0 10.304,4.864 10.304,10.752 0,5.952 -4.608,10.752 -10.24,10.752 -5.76,0 -10.304,-4.8 -10.304,-10.88 0,-5.824 4.672,-10.624 10.24,-10.624 z" />
    </g>
  </g>
</svg>
